<svg preserveAspectRatio="none" width="100%" height="100%" overflow="visible" style="display: block;" viewBox="0 0 20 20" fill="none" xmlns="http://www.w3.org/2000/svg">
<g id="Phone-analog" clip-path="url(#clip0_0_19)">
<g id="Vector">
<path d="M19.1666 10C19.1666 4.94583 15.0541 0.833333 9.99992 0.833333V1.66667C14.5958 1.66667 18.3333 5.40417 18.3333 10H19.1666Z" fill="var(--fill-0, #26262E)"/>
<path d="M9.99992 6.25C12.0666 6.25 13.7499 7.93333 13.7499 10H14.5833C14.5833 7.47083 12.5291 5.41667 9.99992 5.41667V6.25Z" fill="var(--fill-0, #26262E)"/>
<path d="M11.9291 12.5708C12.2791 12.225 12.8458 12.2208 13.1958 12.5708L13.1916 12.5625L16.4166 15.7875C16.7666 16.1375 16.7624 16.7042 16.2666 17.2L15.2499 18.2167C14.5916 18.8708 13.2041 19.2333 12.2791 19.1458C5.89159 18.5417 1.45825 14.1083 0.854085 7.72083C0.766585 6.79583 1.12492 5.40833 1.78325 4.75L2.94575 3.5875C3.29575 3.24167 3.86242 3.2375 4.21242 3.5875L7.43742 6.8125C7.79159 7.1625 7.78742 7.72917 7.43742 8.07917L5.25409 10.3583C6.18742 12.5833 7.42492 13.825 9.64992 14.7542L11.9291 12.5708Z" fill="var(--fill-0, #26262E)"/>
</g>
</g>
<defs>
<clipPath id="clip0_0_19">
<rect width="20" height="20" fill="white"/>
</clipPath>
</defs>
</svg>
