<svg preserveAspectRatio="none" width="100%" height="100%" overflow="visible" style="display: block;" viewBox="0 0 20 20" fill="none" xmlns="http://www.w3.org/2000/svg">
<g id="linkedin">
<g id="Vector">
<path d="M16.8694 8.13074C15.9317 7.19302 14.6598 6.66621 13.3336 6.66621C12.0074 6.66621 10.7355 7.19302 9.79778 8.13074C8.86003 9.06846 8.3332 10.3403 8.3332 11.6664V17.5H11.6668V11.6664C11.6668 11.2244 11.8424 10.8004 12.155 10.4879C12.4676 10.1753 12.8915 9.99968 13.3336 9.99968C13.7757 9.99968 14.1996 10.1753 14.5122 10.4879C14.8248 10.8004 15.0004 11.2244 15.0004 11.6664V17.5H18.334V11.6664C18.334 10.3403 17.8072 9.06846 16.8694 8.13074Z" stroke="var(--stroke-0, #FDEDE8)" stroke-width="2" stroke-linecap="round"/>
<path d="M4.9996 7.49958H1.666V17.5H4.9996V7.49958Z" stroke="var(--stroke-0, #FDEDE8)" stroke-width="2" stroke-linecap="round"/>
<path d="M3.3328 4.99947C4.25335 4.99947 4.9996 4.25325 4.9996 3.33274C4.9996 2.41222 4.25335 1.666 3.3328 1.666C2.41225 1.666 1.666 2.41222 1.666 3.33274C1.666 4.25325 2.41225 4.99947 3.3328 4.99947Z" stroke="var(--stroke-0, #FDEDE8)" stroke-width="2" stroke-linecap="round"/>
</g>
</g>
</svg>
